<svg viewBox="0 0 64 64" xmlns="http://www.w3.org/2000/svg" fill="none" stroke="currentColor" stroke-width="2.2" stroke-linecap="round" stroke-linejoin="round">
  <!-- bushy tail, big loop kept clear of the face on the left -->
  <path d="M36,48 C48,48 54,36 48,26 C45,20 37,19 35,25 C41,24 45,30 43,36 C41,42 37,44 32,43"/>
  <!-- body -->
  <ellipse cx="24" cy="42" rx="11" ry="14"/>
  <!-- head -->
  <circle cx="21" cy="23" r="8"/>
  <!-- ears -->
  <path d="M16,18 L14,11 L20,17 Z" fill="currentColor" stroke="none"/>
  <path d="M25,17 L28,10 L29,17 Z" fill="currentColor" stroke="none"/>
  <!-- face -->
  <circle cx="18" cy="24" r="1.2" fill="currentColor" stroke="none"/>
  <!-- paws + acorn -->
  <ellipse cx="22" cy="37" rx="4.5" ry="3.5"/>
  <path d="M22,32 L22,34 M20,32 L24,32"/>
  <!-- legs -->
  <path d="M18,54 L17,60 M27,54 L29,60"/>
</svg>
