<svg viewBox="0 0 64 64" xmlns="http://www.w3.org/2000/svg" fill="none" stroke="currentColor" stroke-width="2" stroke-linecap="round" stroke-linejoin="round">
  <!-- ear tufts -->
  <path d="M17,16 L14,7 L21,14 Z"/>
  <path d="M39,14 L46,7 L43,16 Z"/>
  <!-- body / head, single rounded silhouette -->
  <path d="M14,34 C13,22 21,12 30,12 C39,12 47,22 46,34 C45,45 37,50 30,50 C23,50 15,45 14,34 Z"/>
  <!-- eyes -->
  <circle cx="23" cy="28" r="5.5"/>
  <circle cx="37" cy="28" r="5.5"/>
  <circle cx="23" cy="28" r="1.4" fill="currentColor" stroke="none"/>
  <circle cx="37" cy="28" r="1.4" fill="currentColor" stroke="none"/>
  <!-- beak -->
  <path d="M28,35 L30,39 L32,35 Z" fill="currentColor" stroke="none"/>
  <!-- wing fold lines -->
  <path d="M16,38 C19,42 22,44 26,45"/>
  <path d="M44,38 C41,42 38,44 34,45"/>
  <!-- feet -->
  <path d="M25,50 L23,56 M23,56 L20,57 M23,56 L26,58"/>
  <path d="M35,50 L37,56 M37,56 L34,58 M37,56 L40,57"/>
</svg>
