<svg viewBox="0 0 64 64" xmlns="http://www.w3.org/2000/svg" fill="none" stroke="currentColor" stroke-width="2" stroke-linecap="round" stroke-linejoin="round">
  <!-- sleek angular body -->
  <path d="M17,38 C15,28 22,17 33,15 C43,13.5 51,19 53,27 C54.5,33 51,37 45,38.5 C37,40.5 23,41 18,39.5 Z"/>
  <!-- hunched shoulder line -->
  <path d="M26,17 C29,21 30,26 28,31"/>
  <!-- thick hooked beak -->
  <path d="M52,24 L61,20.5 L56,26 L61,27.5 L52,29 Z" fill="currentColor" stroke="none"/>
  <!-- eye -->
  <circle cx="46" cy="23" r="1.6" fill="currentColor" stroke="none"/>
  <!-- sharp wing chevron -->
  <path d="M24,32 C31,29 39,30 44,35 C38,35.5 31,36.5 25,39"/>
  <!-- long straight tail, kept within canvas -->
  <path d="M18,37 C11,38 5,39 1,40"/>
  <!-- legs -->
  <path d="M31,40 L29,48 M29,48 L25,49 M29,48 L33,50"/>
  <path d="M40,40 L42,48 M42,48 L38,50 M42,48 L46,49"/>
</svg>
