<svg viewBox="0 0 64 64" xmlns="http://www.w3.org/2000/svg" fill="none" stroke="currentColor" stroke-width="2" stroke-linecap="round" stroke-linejoin="round">
  <!-- body -->
  <path d="M16,38 C13,29 16,18 25,14 C33,10.5 43,13 47,21 C51,29 48,39 39,43.5 C30,48 20,47 16,38 Z"/>
  <!-- tail, angled up -->
  <path d="M17,32 C11,29 6,26 3,20"/>
  <!-- beak -->
  <path d="M46,20 L53,17.5 L46,24 Z" fill="currentColor" stroke="none"/>
  <!-- eye -->
  <circle cx="41" cy="20" r="1.6" fill="currentColor" stroke="none"/>
  <!-- wing line -->
  <path d="M22,26 C28,24 34,26 38,32"/>
  <!-- legs -->
  <path d="M25,46 L23,54 M23,54 L19,55 M23,54 L27,55"/>
  <path d="M34,46 L36,54 M36,54 L32,55 M36,54 L40,55"/>
  <!-- breast accent -->
  <circle cx="27" cy="34" r="3.5" fill="#E8A798" stroke="none" opacity="0.85"/>
</svg>
