<svg viewBox="0 0 64 64" xmlns="http://www.w3.org/2000/svg" fill="none" stroke="currentColor" stroke-width="2" stroke-linecap="round" stroke-linejoin="round">
  <!-- vertical clinging body -->
  <path d="M28,10 C21,14 18,24 20,34 C22,44 27,50 33,52 C39,54 44,50 43,43 C42,36 37,34 36,28 C35,20 33,13 28,10 Z"/>
  <!-- crest spikes -->
  <path d="M27,11 L25,4"/>
  <path d="M30,10 L30,3"/>
  <path d="M33,11 L36,5"/>
  <!-- long straight beak -->
  <path d="M20,20 L9,17"/>
  <!-- eye -->
  <circle cx="24" cy="19" r="1.6" fill="currentColor" stroke="none"/>
  <!-- wing line -->
  <path d="M26,26 C31,28 34,33 33,40"/>
  <!-- stiff prop tail, bent down -->
  <path d="M39,46 C42,50 42,55 38,59"/>
  <!-- feet gripping perch -->
  <path d="M30,51 L27,57 M27,57 L23,58 M27,57 L30,59"/>
  <path d="M37,50 L40,56 M40,56 L37,58 M40,56 L43,57"/>
  <!-- back stripe accent -->
  <path d="M27,16 C29,24 30,32 31,40" opacity="0.5"/>
</svg>
